# xmcd
#
# Track frame offsets: 
#        150
#        12917
#        25970
#        38322
#        52657
#        66865
#        80185
#        93332
#        108305
#        123362
#        138412
#        152770
#        167182
#        179880
#        195690
#        208055
#        222840
#        235875
#        249230
#        262895
#        276795
#        288935
#        302725
#        314447
#        325845
#
# Disc length: 4466 seconds
#
# Revision: 1
# Processed by: cddbd v1.5.2PL0 Copyright (c) Steve Scherf et al.
# Submitted via: ExactAudioCopy v1.0b1
#
DISCID=61117019
DTITLE=Jimmy Rogers - The Complete Chess Recordings Vol1
DYEAR=1997
DGENRE=Blues
TTITLE0=That's All Right (mono)
TTITLE1=Luedella (mono)
TTITLE2=Goin' Away Baby (mono)
TTITLE3=Today, Today Blues (mono)
TTITLE4=I Used To Have A Woman (mono)
TTITLE5=The World's In A Tangle (mono)
TTITLE6=She Loves Another Man (mono)
TTITLE7=Money, Marbles And Chalk (mono)
TTITLE8=Hard Working Man (mono)
TTITLE9=Chance To Love (mono)
TTITLE10=My Little Machine (mono)
TTITLE11=Back Door Friend (mono)
TTITLE12=Crying Shame (mono)
TTITLE13=Mistreated Baby (mono)
TTITLE14=The Last Time (mono)
TTITLE15=What's The Matter? (mono)
TTITLE16=Out On The Road (mono)
TTITLE17=Left Me With A Broken Heart (mono)
TTITLE18=Act Like You Love Me (mono)
TTITLE19=Blues All Day Long (Blues Leave Me Alone) (mono)
TTITLE20=Chicago Bound (mono)
TTITLE21=Sloppy Drunk (mono)
TTITLE22=You're The One (version 1) (mono)
TTITLE23=You're The One (version 2) (mono)
TTITLE24=If It Ain't Me (Who Are You Thinking Of) (mono)
EXTD=
EXTT0=
EXTT1=
EXTT2=
EXTT3=
EXTT4=
EXTT5=
EXTT6=
EXTT7=
EXTT8=
EXTT9=
EXTT10=
EXTT11=
EXTT12=
EXTT13=
EXTT14=
EXTT15=
EXTT16=
EXTT17=
EXTT18=
EXTT19=
EXTT20=
EXTT21=
EXTT22=
EXTT23=
EXTT24=
PLAYORDER=
